<?xml version="1.0" encoding="UTF-8" standalone="no"?>
<!-- Created with Inkscape (http://www.inkscape.org/) -->

<svg
   xmlns:dc="http://purl.org/dc/elements/1.1/"
   xmlns:cc="http://creativecommons.org/ns#"
   xmlns:rdf="http://www.w3.org/1999/02/22-rdf-syntax-ns#"
   xmlns:svg="http://www.w3.org/2000/svg"
   xmlns="http://www.w3.org/2000/svg"
   xmlns:sodipodi="http://sodipodi.sourceforge.net/DTD/sodipodi-0.dtd"
   xmlns:inkscape="http://www.inkscape.org/namespaces/inkscape"
   width="744.09448819"
   height="1052.3622047"
   id="svg2"
   version="1.1"
   inkscape:version="0.48.4 r9939"
   sodipodi:docname="logo.svg">
  <defs
     id="defs4" />
  <sodipodi:namedview
     id="base"
     pagecolor="#ffffff"
     bordercolor="#666666"
     borderopacity="1.0"
     inkscape:pageopacity="0.0"
     inkscape:pageshadow="2"
     inkscape:zoom="0.47"
     inkscape:cx="43.085106"
     inkscape:cy="520"
     inkscape:document-units="px"
     inkscape:current-layer="layer2"
     showgrid="false"
     inkscape:window-width="1366"
     inkscape:window-height="705"
     inkscape:window-x="-8"
     inkscape:window-y="-8"
     inkscape:window-maximized="1" />
  <metadata
     id="metadata7">
    <rdf:RDF>
      <cc:Work
         rdf:about="">
        <dc:format>image/svg+xml</dc:format>
        <dc:type
           rdf:resource="http://purl.org/dc/dcmitype/StillImage" />
        <dc:title></dc:title>
      </cc:Work>
    </rdf:RDF>
  </metadata>
  <g
     inkscape:groupmode="layer"
     id="layer2"
     inkscape:label="Base"
     style="display:inline">
    <rect
       style="opacity:0.98999999;fill:#000000"
       id="rect3020"
       width="746.80853"
       height="1061.7021"
       x="2.1276596"
       y="-5.0846262" />
    <path
       style="opacity:0.98999999000000005;fill:#333333;fill-opacity:1"
       d="m 3.0851064,525.12814 0,-529.787234 372.3404236,0 372.34043,0 0,529.787234 0,529.78726 -372.34043,0 -372.3404236,0 0,-529.78726 z M 537.46045,855.9792 c 3.45072,-9.3617 10.64183,-28.98936 15.98025,-43.61702 5.33843,-14.62766 11.4929,-31.13191 13.67658,-36.67613 l 3.97034,-10.08038 -54.51577,0.0268 c -29.98368,0.0149 -54.90019,-0.35755 -55.37004,-0.82738 -0.46983,-0.46985 2.87081,-10.78619 7.42366,-22.92522 4.55285,-12.139 13.86264,-37.39008 20.68838,-56.11348 6.82577,-18.72341 13.00862,-34.76539 13.73968,-35.64883 0.73107,-0.88343 22.32104,-1.84088 47.97773,-2.12766 l 46.64851,-0.52139 11.86632,-31.91489 c 6.52646,-17.55319 14.86148,-40.29255 18.52223,-50.53192 l 6.65591,-18.61702 -12.09617,-0.29434 c -6.65287,-0.16191 -27.5334,-0.87998 -46.40117,-1.59574 l -34.305,-1.30136 17.62494,-47.87234 17.62494,-47.87234 51.04123,-1.88954 51.04121,-1.88953 18.59268,-50.23813 c 10.22596,-27.63097 19.04434,-51.44257 19.59639,-52.91466 0.80076,-2.13529 -24.47671,-2.56555 -124.99926,-2.12766 l -126.00302,0.54888 -2.88355,7.44681 C 452.22394,375.67369 272.47979,865.49782 271.68002,869.29352 l -1.01217,4.80368 130.25928,-0.54836 130.25927,-0.54836 6.27405,-17.02128 0,0 z M 216.91489,612.32363 c 22.23405,-1.10455 47.1002,-3.45696 55.25811,-5.22758 15.82213,-3.43408 40.62611,-14.44553 51.12487,-22.69631 19.81932,-15.57569 36.53013,-42.06815 52.1499,-82.67586 3.82604,-9.9468 7.76721,-20 8.75812,-22.34042 0.99092,-2.34043 5.51975,-14.78723 10.06407,-27.65958 4.54432,-12.87234 21.66944,-60.74468 38.05585,-106.38297 25.95347,-72.28383 39.27351,-110.87932 42.22204,-122.34043 0.45158,-1.75532 2.30351,-8.45745 4.11538,-14.89362 6.05232,-21.49903 4.05988,-43.80187 -5.26889,-58.9782 -9.17,-14.91806 -31.11991,-25.24451 -64.99008,-30.57493 -8.35698,-1.3152 -57.84869,-2.81529 -112.76596,-3.41793 l -97.87234,-1.074 -8.19027,23.08636 c -9.95594,28.06332 -22.50991,63.10004 -41.81587,116.70338 -13.63979,37.87111 -20.10158,55.87637 -43.90603,122.34043 -5.238969,14.62766 -14.702311,40.95745 -21.029647,58.51064 -47.586609,132.01398 -62.71776,174.73721 -62.71776,177.08532 0,3.32891 133.280737,3.69168 196.808507,0.5357 z"
       id="path3026"
       inkscape:connector-curvature="0" />
    <path
       style="opacity:0.98999999;fill:#333333;fill-opacity:1"
       d="m -6.7754084,526.19199 0.565016,-530.851084 388.2647624,0 388.26478,0 0,530.851064 0,530.85103 -388.82979,1e-4 -388.8297854,0 0.565017,-530.85111 0,0 z m 573.2640684,293.617 20.57433,-53.19149 -55.72192,-1.71527 c -30.64706,-0.94339 -56.16371,-2.13771 -56.70366,-2.654 -0.9679,-0.92556 16.16108,-47.75022 32.64779,-89.24775 l 8.45306,-21.2766 13.25597,-1.43404 c 7.29077,-0.78872 29.76538,-1.74617 49.94358,-2.12766 l 36.68765,-0.69361 19.26144,-50 c 10.59379,-27.5 18.89997,-50.57409 18.45819,-51.27573 -0.44178,-0.70166 -21.43076,-1.80327 -46.64221,-2.44804 -25.2114,-0.64479 -46.40197,-1.7107 -47.09011,-2.36875 -0.68814,-0.65802 2.33471,-10.49385 6.71745,-21.85738 4.38276,-11.36355 7.45725,-21.45227 6.83215,-22.41938 -0.62506,-0.96711 -0.27087,-1.75838 0.78706,-1.75838 1.05795,0 5.86289,-10.53192 10.67766,-23.40426 l 8.75408,-23.40425 8.92297,-0.2882 c 4.90765,-0.15851 28.94213,-0.87657 53.40997,-1.59574 l 44.48698,-1.30755 20.58272,-53.19149 c 11.32053,-29.25532 20.58879,-53.90958 20.59615,-54.78724 0.006,-0.87766 -59.47516,-1.59574 -132.18338,-1.59574 l -132.19672,0 -5.67284,14.3617 c -15.57979,39.44268 -23.31982,61.01126 -22.40324,62.42938 0.55771,0.86288 0.14172,1.89 -0.92437,2.28251 -1.48021,0.54498 -116.62295,296.91307 -170.77439,439.55951 l -7.47734,19.69696 138.08331,-0.54802 138.08332,-0.548 20.57435,-53.19149 0,0 z M 264.05268,610.36184 c 7.3072,-1.35381 13.81551,-3.13308 14.46291,-3.95396 0.64744,-0.82089 4.00054,-1.68191 7.45137,-1.9134 3.45084,-0.23149 13.83982,-3.99547 23.08661,-8.3644 32.24321,-15.23424 51.13032,-39.16543 73.66823,-93.34237 11.80409,-28.37489 43.17862,-111.93442 43.5391,-115.95744 0.15732,-1.75532 0.89283,-3.67022 1.63451,-4.25532 2.11848,-1.67124 49.82247,-130.46049 57.50226,-155.24232 3.79469,-12.245 6.40526,-23.49499 5.80129,-25.00001 -0.60394,-1.50502 -0.12825,-2.73639 1.05712,-2.73639 1.20673,0 2.14567,-7.25678 2.13351,-16.48937 -0.0248,-18.72238 -5.78235,-33.50537 -16.94109,-43.49673 -9.20593,-8.24285 -28.893,-16.24796 -49.02303,-19.93362 -22.161,-4.05752 -98.29241,-7.23118 -174.58808,-7.27799 l -59.23126,-0.0363 -3.0705,10.10639 c -1.68877,5.55851 -3.0705,11.06383 -3.0705,12.23404 0,1.17021 -0.64811,2.60638 -1.44023,3.19149 -2.45585,1.81403 -70.81841,185.59923 -69.68792,187.34832 0.58651,0.90746 0.17946,1.97106 -0.90456,2.36357 -2.02753,0.73413 -69.7116,179.03349 -70.135129,184.75619 -0.129922,1.75532 -0.823238,3.67022 -1.540733,4.25532 -1.340471,1.09313 -7.69594,17.45862 -26.714246,68.78981 L 7.1391409,614.8354 128.95302,613.82935 c 78.74688,-0.65034 126.51103,-1.87627 135.09966,-3.46751 z"
       id="path3796"
       inkscape:connector-curvature="0" />
    <path
       style="opacity:0.98999999;fill:#333333;fill-opacity:1"
       d="m 188.34643,523.5324 c 0.8037,-2.04788 11.83835,-32.92554 24.52143,-68.61703 12.68309,-35.69149 36.65273,-102.71276 53.26588,-148.93617 16.61314,-46.2234 31.71475,-88.59042 33.55912,-94.14893 l 3.35341,-10.10639 12.45656,0 c 10.3886,0 13.32355,0.867 17.67899,5.22244 2.87234,2.87234 5.22244,6.79413 5.22244,8.71509 0,6.09817 -6.40225,25.91069 -28.84164,89.25396 -52.75434,148.91811 -70.04106,193.81815 -79.81612,207.31224 -4.73894,6.54191 -8.61567,9.18708 -17.20126,11.73672 -6.09595,1.81032 -14.36327,3.29147 -18.37181,3.29147 -6.07945,0 -7.04591,-0.61755 -5.827,-3.7234 z"
       id="path3798"
       inkscape:connector-curvature="0" />
  </g>
  <g
     inkscape:label="Layer 1"
     inkscape:groupmode="layer"
     id="layer1"
     style="display:inline">
    <flowRoot
       xml:space="preserve"
       id="flowRoot2985"
       style="font-size:40px;font-style:normal;font-variant:normal;font-weight:normal;font-stretch:normal;line-height:125%;letter-spacing:0px;word-spacing:0px;fill:#000000;fill-opacity:1;stroke:none;font-family:Impact;-inkscape-font-specification:Impact"
       transform="matrix(1.6681861,0,0,1.5786603,-246.64625,-334.78859)"><flowRegion
         id="flowRegion2987"><rect
           id="rect2989"
           width="329.78723"
           height="387.23407"
           x="142.55319"
           y="231.08559"
           style="font-style:normal;font-variant:normal;font-weight:normal;font-stretch:normal;font-family:Impact;-inkscape-font-specification:Impact" /></flowRegion><flowPara
         id="flowPara2991"
         style="font-size:400px;font-style:oblique;-inkscape-font-specification:Impact Oblique">D</flowPara></flowRoot>    <flowRoot
       xml:space="preserve"
       id="flowRoot2993"
       style="font-size:40px;font-style:normal;font-weight:normal;line-height:125%;letter-spacing:0px;word-spacing:0px;fill:#000000;fill-opacity:1;stroke:none;font-family:Sans"><flowRegion
         id="flowRegion2995"><rect
           id="rect2997"
           width="100"
           height="110.6383"
           x="314.89362"
           y="282.14941" /></flowRegion><flowPara
         id="flowPara2999"></flowPara></flowRoot>    <flowRoot
       xml:space="preserve"
       id="flowRoot3001"
       style="font-size:40px;font-style:normal;font-variant:normal;font-weight:normal;font-stretch:normal;line-height:125%;letter-spacing:0px;word-spacing:0px;fill:#000000;fill-opacity:1;stroke:none;font-family:Impact;-inkscape-font-specification:Impact"
       transform="matrix(1.8351682,0,0,1.6930467,-443.82059,-673.43307)"><flowRegion
         id="flowRegion3003"><rect
           id="rect3005"
           width="278.72342"
           height="389.36169"
           x="372.34042"
           y="543.85156"
           style="font-style:normal;font-variant:normal;font-weight:normal;font-stretch:normal;font-family:Impact;-inkscape-font-specification:Impact" /></flowRegion><flowPara
         id="flowPara3007"
         style="font-size:400px;font-style:oblique;-inkscape-font-specification:Impact Oblique">E</flowPara></flowRoot>    <flowRoot
       xml:space="preserve"
       id="flowRoot3009"
       style="font-size:40px;font-style:normal;font-weight:normal;line-height:125%;letter-spacing:0px;word-spacing:0px;fill:#000000;fill-opacity:1;stroke:none;font-family:Sans"><flowRegion
         id="flowRegion3011"><rect
           id="rect3013"
           width="14.893617"
           height="131.91489"
           x="372.34042"
           y="782.14941" /></flowRegion><flowPara
         id="flowPara3015"></flowPara></flowRoot>    <path
       style="opacity:0.98999999;fill:#ffffff"
       d="M 24.240972,601.19197 C 29.704751,585.56446 196.01862,122.84759 197.95477,117.8871 c 1.53045,-3.92108 4.42144,-4.00785 91.12142,-2.73488 111.37396,1.63524 135.74753,4.06832 160.50883,16.02275 19.73807,9.52928 32.22349,29.24829 32.22349,50.89259 0,19.15307 -10.69113,52.52402 -66.96362,209.01803 -38.98589,108.42 -46.18885,126.91857 -59.12459,151.84357 -11.60832,22.36726 -30.54932,41.32134 -51.11313,51.14849 -34.02396,16.25955 -53.46851,18.20068 -182.79044,18.24766 l -101.48115,0.0369 3.905392,-11.17021 z M 217.80467,523.88571 c 16.4558,-6.58431 20.16063,-14.85836 74.23001,-165.77885 44.05921,-122.97974 47.22064,-132.53937 47.22064,-142.78739 0,-11.69911 -9.73038,-16.93383 -28.52519,-15.3459 l -8.12515,0.68648 -57.29602,159.57447 c -31.5128,87.76596 -57.8756,161.87713 -58.58399,164.69147 -1.27544,5.06719 -1.17093,5.10326 10.73237,3.70426 6.6112,-0.777 15.7675,-2.91207 20.34733,-4.74454 l 0,0 z"
       id="path3022"
       inkscape:connector-curvature="0" />
    <path
       style="opacity:0.98999999;fill:#ffffff"
       d="m 275.01519,861.83027 c 2.1052,-5.55851 46.37293,-125.71809 98.37274,-267.02128 l 94.54509,-256.91489 123.95902,0 c 68.17747,0 123.95902,0.76033 123.95902,1.68962 0,0.92929 -8.47272,24.6261 -18.82827,52.65957 l -18.8283,50.96996 -50.69113,1.06383 -50.69113,1.06383 -18.45632,50 -18.45629,50 46.48636,0.57262 c 25.56749,0.31494 46.44883,1.27238 46.40293,2.12766 -0.0459,0.85527 -8.01857,23.09759 -17.7171,49.42738 l -17.6337,47.87234 -47.53958,1.06383 -47.53957,1.06383 -20.88647,56.38297 c -11.48755,31.01064 -21.44188,58.05851 -22.12073,60.10639 -1.15435,3.48234 2.35051,3.7234 54.13292,3.7234 l 55.36717,0 -4.95602,13.29787 c -2.72581,7.31383 -11.40634,30.77128 -19.29006,52.12766 l -14.33403,38.82979 -129.54209,0 -129.54209,0 3.82763,-10.10638 0,0 z"
       id="path3024"
       inkscape:connector-curvature="0" />
  </g>
</svg>
